
<svg xmlns="http://www.w3.org/2000/svg" viewBox="0 0 55 55">
	<style type="text/css">
		.st0{fill:#B6C7F5;}
		.st1{fill:#DDDDDD;}
		.st2{fill:#FFFFFF;}
		.st3{fill:#2A2A2A;}
		.st4{fill:#111111;}
		.st5{fill:url(#SVGID_1_);}
		.st6{fill:url(#SVGID_2_);}
		.st7{opacity:0.47;fill:url(#SVGID_3_);enable-background:new    ;}
	</style>
	<g id="default-app">
		<path class="st0" d="M53,47.9c0,2.8-2.3,5.1-5.1,5.1H7.1C4.3,53,2,50.7,2,47.9V7.1C2,4.3,4.3,2,7.1,2h40.8C50.7,2,53,4.3,53,7.1
			V47.9z"/>
		<path d="M6,21.2v26.4C6,48.4,6.6,49,7.4,49h40.2c0.8,0,1.4-0.6,1.4-1.4V21.2H6z"/>
	</g>
	<g id="Layer_2_1_">
		<path class="st1" d="M6.8,21.2v26.2c0,0.5,0.4,0.8,0.8,0.8h3.7c0.5,0,0.8-0.4,0.8-0.8V21.2H6.8z"/>
		<path class="st1" d="M12.8,21.2v26.2c0,0.5,0.4,0.8,0.8,0.8h3.7c0.5,0,0.8-0.4,0.8-0.8V21.2H12.8z"/>
		<path class="st1" d="M18.8,21.2v26.2c0,0.5,0.4,0.8,0.8,0.8h3.7c0.5,0,0.8-0.4,0.8-0.8V21.2H18.8z"/>
		<path class="st1" d="M24.8,21.2v26.2c0,0.5,0.4,0.8,0.8,0.8h3.7c0.5,0,0.8-0.4,0.8-0.8V21.2H24.8z"/>
		<path class="st1" d="M30.8,21.2v26.2c0,0.5,0.4,0.8,0.8,0.8h3.7c0.5,0,0.8-0.4,0.8-0.8V21.2H30.8z"/>
		<path class="st1" d="M36.9,21.2v26.2c0,0.5,0.4,0.8,0.8,0.8h3.7c0.5,0,0.8-0.4,0.8-0.8V21.2H36.9z"/>
		<path class="st1" d="M42.9,21.2v26.2c0,0.5,0.4,0.8,0.8,0.8h3.7c0.5,0,0.8-0.4,0.8-0.8V21.2H42.9z"/>
		<path class="st2" d="M6.8,21.2v23.9c0,0.5,0.4,0.8,0.8,0.8h3.7c0.5,0,0.8-0.4,0.8-0.8V21.2H6.8z"/>
		<path class="st2" d="M12.8,21.2v23.9c0,0.5,0.4,0.8,0.8,0.8h3.7c0.5,0,0.8-0.4,0.8-0.8V21.2H12.8z"/>
		<path class="st2" d="M18.8,21.2v23.9c0,0.5,0.4,0.8,0.8,0.8h3.7c0.5,0,0.8-0.4,0.8-0.8V21.2H18.8z"/>
		<path class="st2" d="M24.8,21.2v23.9c0,0.5,0.4,0.8,0.8,0.8h3.7c0.5,0,0.8-0.4,0.8-0.8V21.2H24.8z"/>
		<path class="st2" d="M30.8,21.2v23.9c0,0.5,0.4,0.8,0.8,0.8h3.7c0.5,0,0.8-0.4,0.8-0.8V21.2H30.8z"/>
		<path class="st2" d="M36.9,21.2v23.9c0,0.5,0.4,0.8,0.8,0.8h3.7c0.5,0,0.8-0.4,0.8-0.8V21.2H36.9z"/>
		<path class="st2" d="M42.9,21.2v23.9c0,0.5,0.4,0.8,0.8,0.8h3.7c0.5,0,0.8-0.4,0.8-0.8V21.2H42.9z"/>
	</g>
	<g id="Layer_4">
		<g>
			<path class="st3" d="M10.3,21.2v15.4c0,0.5,0.4,0.9,0.9,0.9h2.6c0.5,0,0.9-0.4,0.9-0.9V21.2H10.3z"/>
			<path class="st4" d="M13.8,37.7h-2.6c-0.6,0-1.2-0.5-1.2-1.2V20.9H15v15.7C15,37.2,14.5,37.7,13.8,37.7z M10.6,21.5v15.1
				c0,0.3,0.3,0.6,0.6,0.6h2.6c0.3,0,0.6-0.3,0.6-0.6V21.5H10.6z"/>
		</g>
		<path class="st4" d="M10.9,21.2v13.1c0,0.3,0.2,0.5,0.5,0.5h2.3c0.3,0,0.5-0.2,0.5-0.5V21.2H10.9z"/>
		<g>
			<path class="st3" d="M16.3,21.2v15.4c0,0.5,0.4,0.9,0.9,0.9h2.6c0.5,0,0.9-0.4,0.9-0.9V21.2H16.3z"/>
			<path class="st4" d="M19.8,37.7h-2.6c-0.6,0-1.2-0.5-1.2-1.2V20.9H21v15.7C21,37.2,20.4,37.7,19.8,37.7z M16.6,21.5v15.1
				c0,0.3,0.3,0.6,0.6,0.6h2.6c0.3,0,0.6-0.3,0.6-0.6V21.5H16.6z"/>
		</g>
		<path class="st4" d="M16.8,21.2v13.1c0,0.3,0.2,0.5,0.5,0.5h2.3c0.3,0,0.5-0.2,0.5-0.5V21.2H16.8z"/>
		<g>
			<path class="st3" d="M28.3,21.2v15.4c0,0.5,0.4,0.9,0.9,0.9h2.6c0.5,0,0.9-0.4,0.9-0.9V21.2H28.3z"/>
			<path class="st4" d="M31.8,37.7h-2.6c-0.6,0-1.2-0.5-1.2-1.2V20.9H33v15.7C33,37.2,32.5,37.7,31.8,37.7z M28.6,21.5v15.1
				c0,0.3,0.3,0.6,0.6,0.6h2.6c0.3,0,0.6-0.3,0.6-0.6V21.5H28.6z"/>
		</g>
		<path class="st4" d="M28.9,21.2v13.1c0,0.3,0.2,0.5,0.5,0.5h2.3c0.3,0,0.5-0.2,0.5-0.5V21.2H28.9z"/>
		<g>
			<path class="st3" d="M34.3,21.2v15.4c0,0.5,0.4,0.9,0.9,0.9h2.6c0.5,0,0.9-0.4,0.9-0.9V21.2H34.3z"/>
			<path class="st4" d="M37.8,37.7h-2.6c-0.6,0-1.2-0.5-1.2-1.2V20.9H39v15.7C39,37.2,38.5,37.7,37.8,37.7z M34.6,21.5v15.1
				c0,0.3,0.3,0.6,0.6,0.6h2.6c0.3,0,0.6-0.3,0.6-0.6V21.5H34.6z"/>
		</g>
		<path class="st4" d="M34.9,21.2v13.1c0,0.3,0.2,0.5,0.5,0.5h2.3c0.3,0,0.5-0.2,0.5-0.5V21.2H34.9z"/>
		<g>
			<path class="st3" d="M40.3,21.2v15.4c0,0.5,0.4,0.9,0.9,0.9h2.6c0.5,0,0.9-0.4,0.9-0.9V21.2H40.3z"/>
			<path class="st4" d="M43.8,37.7h-2.6c-0.6,0-1.2-0.5-1.2-1.2V20.9H45v15.7C45,37.2,44.4,37.7,43.8,37.7z M40.6,21.5v15.1
				c0,0.3,0.3,0.6,0.6,0.6h2.6c0.3,0,0.6-0.3,0.6-0.6V21.5H40.6z"/>
		</g>
		<path class="st4" d="M40.8,21.2v13.1c0,0.3,0.2,0.5,0.5,0.5h2.3c0.3,0,0.5-0.2,0.5-0.5V21.2H40.8z"/>
	</g>
	<g id="Layer_3">
		
			<linearGradient id="SVGID_1_" gradientUnits="userSpaceOnUse" x1="27.5" y1="34.7898" x2="27.5" y2="17.5769" gradientTransform="matrix(1 0 0 -1 0 56)">
			<stop  offset="0" style="stop-color:#000000;stop-opacity:0.2"/>
			<stop  offset="1" style="stop-color:#B4CAEC;stop-opacity:0"/>
		</linearGradient>
		<rect x="2" y="21.2" class="st5" width="51" height="17.2"/>
		
			<linearGradient id="SVGID_2_" gradientUnits="userSpaceOnUse" x1="27.5" y1="34.7898" x2="27.5" y2="53.9834" gradientTransform="matrix(1 0 0 -1 0 56)">
			<stop  offset="0" style="stop-color:#AFC7EB"/>
			<stop  offset="0.2447" style="stop-color:#B6CCED"/>
			<stop  offset="0.2562" style="stop-color:#EBEFF8"/>
			<stop  offset="1" style="stop-color:#B4CAEC"/>
		</linearGradient>
		<path class="st6" d="M53,21.2V7.1C53,4.3,50.7,2,47.9,2H7.1C4.3,2,2,4.3,2,7.1v14.1H53z"/>
		
			<linearGradient id="SVGID_3_" gradientUnits="userSpaceOnUse" x1="10.7063" y1="59.6875" x2="44.2937" y2="26.1001" gradientTransform="matrix(1 0 0 -1 0 56)">
			<stop  offset="0.5985" style="stop-color:#EBEFF8;stop-opacity:0.5"/>
			<stop  offset="0.6" style="stop-color:#B4CAEC;stop-opacity:0.5"/>
			<stop  offset="1" style="stop-color:#B6CCED;stop-opacity:0.11"/>
		</linearGradient>
		<path class="st7" d="M53,21.2V7.1C53,4.3,50.7,2,47.9,2H7.1C4.3,2,2,4.3,2,7.1v14.1H53z"/>
	</g>
</svg>
