
<svg viewBox="0 0 500 500" xmlns="http://www.w3.org/2000/svg">
	<style type="text/css">
		.st0{fill:#B6C7F5;}
		.st1{fill:#DDDDDD;}
		.st2{fill:#FFFFFF;}
		.st3{fill:#2A2A2A;stroke:#111111;stroke-width:5;stroke-miterlimit:10;}
		.st4{fill:#111111;}
		.st5{fill:url(#SVGID_1_);}
		.st6{fill:url(#SVGID_2_);}
		.st7{opacity:0.47;fill:url(#SVGID_3_);}
	</style>
	<filter x="-6.1%" y="-3.9%" width="112.1%" height="113.2%" filterUnits="objectBoundingBox" id="dropshadow">
		<feOffset dx="0" dy="6" in="SourceAlpha" result="shadowOffsetOuter1"></feOffset>
		<feGaussianBlur stdDeviation="6" in="shadowOffsetOuter1" result="shadowBlurOuter1"></feGaussianBlur>
		<feColorMatrix values="0 0 0 0 0   0 0 0 0 0   0 0 0 0 0  0 0 0 0.5 0" type="matrix" in="shadowBlurOuter1" result="shadowMatrixOuter1"></feColorMatrix>
		<feMerge>
			<feMergeNode in="shadowMatrixOuter1"></feMergeNode>
			<feMergeNode in="SourceGraphic"></feMergeNode>
		</feMerge>
	</filter>
	<g id="default-app">
		<path class="st0" filter="url(#dropshadow)" d="M470,426c0,24.3-19.7,44-44,44H74c-24.3,0-44-19.7-44-44V74c0-24.3,19.7-44,44-44h352c24.3,0,44,19.7,44,44
			V426z"/>
		<path d="M64.6,195.7v227.7c0,6.7,5.4,12,12,12h346.7c6.7,0,12-5.4,12-12V195.7H64.6z"/>
	</g>
	<g id="Layer_2">
		<path class="st1" d="M71.6,195.5v226.6c0,3.9,3.2,7.1,7.1,7.1h31.6c3.9,0,7.1-3.2,7.1-7.1V195.5H71.6z"/>
		<path class="st1" d="M123.4,195.5v226.6c0,3.9,3.2,7.1,7.1,7.1h31.6c3.9,0,7.1-3.2,7.1-7.1V195.5H123.4z"/>
		<path class="st1" d="M175.3,195.5v226.6c0,3.9,3.2,7.1,7.1,7.1H214c3.9,0,7.1-3.2,7.1-7.1V195.5H175.3z"/>
		<path class="st1" d="M227.1,195.5v226.6c0,3.9,3.2,7.1,7.1,7.1h31.6c3.9,0,7.1-3.2,7.1-7.1V195.5H227.1z"/>
		<path class="st1" d="M278.9,195.5v226.6c0,3.9,3.2,7.1,7.1,7.1h31.6c3.9,0,7.1-3.2,7.1-7.1V195.5H278.9z"/>
		<path class="st1" d="M330.8,195.5v226.6c0,3.9,3.2,7.1,7.1,7.1h31.6c3.9,0,7.1-3.2,7.1-7.1V195.5H330.8z"/>
		<path class="st1" d="M382.6,195.5v226.6c0,3.9,3.2,7.1,7.1,7.1h31.6c3.9,0,7.1-3.2,7.1-7.1V195.5H382.6z"/>
		<path class="st2" d="M71.6,195.9v206.6c0,3.9,3.2,7.1,7.1,7.1h31.6c3.9,0,7.1-3.2,7.1-7.1V195.9H71.6z"/>
		<path class="st2" d="M123.4,195.9v206.6c0,3.9,3.2,7.1,7.1,7.1h31.6c3.9,0,7.1-3.2,7.1-7.1V195.9H123.4z"/>
		<path class="st2" d="M175.3,195.9v206.6c0,3.9,3.2,7.1,7.1,7.1H214c3.9,0,7.1-3.2,7.1-7.1V195.9H175.3z"/>
		<path class="st2" d="M227.1,195.9v206.6c0,3.9,3.2,7.1,7.1,7.1h31.6c3.9,0,7.1-3.2,7.1-7.1V195.9H227.1z"/>
		<path class="st2" d="M278.9,195.9v206.6c0,3.9,3.2,7.1,7.1,7.1h31.6c3.9,0,7.1-3.2,7.1-7.1V195.9H278.9z"/>
		<path class="st2" d="M330.8,195.9v206.6c0,3.9,3.2,7.1,7.1,7.1h31.6c3.9,0,7.1-3.2,7.1-7.1V195.9H330.8z"/>
		<path class="st2" d="M382.6,195.9v206.6c0,3.9,3.2,7.1,7.1,7.1h31.6c3.9,0,7.1-3.2,7.1-7.1V195.9H382.6z"/>
	</g>
	<g id="Layer_4">
		<path class="st3" d="M101.7,195.5v132.7c0,4.1,3.3,7.5,7.5,7.5h22.7c4.1,0,7.5-3.3,7.5-7.5V195.5H101.7z"/>
		<path class="st4" d="M106.4,195.5v112.8c0,2.6,2.1,4.7,4.7,4.7h19.7c2.6,0,4.7-2.1,4.7-4.7V195.5H106.4z"/>
		<path class="st3" d="M153.4,195.6v132.7c0,4.1,3.3,7.5,7.5,7.5h22.7c4.1,0,7.5-3.3,7.5-7.5V195.6H153.4z"/>
		<path class="st4" d="M158,195.5v112.8c0,2.6,2.1,4.7,4.7,4.7h19.7c2.6,0,4.7-2.1,4.7-4.7V195.5H158z"/>
		<path class="st3" d="M257.2,195.5v132.7c0,4.1,3.3,7.5,7.5,7.5h22.7c4.1,0,7.5-3.3,7.5-7.5V195.5H257.2z"/>
		<path class="st4" d="M261.8,195.5v112.8c0,2.6,2.1,4.7,4.7,4.7h19.7c2.6,0,4.7-2.1,4.7-4.7V195.5H261.8z"/>
		<path class="st3" d="M308.9,195.6v132.7c0,4.1,3.3,7.5,7.5,7.5h22.7c4.1,0,7.5-3.3,7.5-7.5V195.6H308.9z"/>
		<path class="st4" d="M313.5,195.5v112.8c0,2.6,2.1,4.7,4.7,4.7h19.7c2.6,0,4.7-2.1,4.7-4.7V195.5H313.5z"/>
		<path class="st3" d="M360.6,195.6v132.7c0,4.1,3.3,7.5,7.5,7.5h22.7c4.1,0,7.5-3.3,7.5-7.5V195.6H360.6z"/>
		<path class="st4" d="M365.2,195.5v112.8c0,2.6,2.1,4.7,4.7,4.7h19.7c2.6,0,4.7-2.1,4.7-4.7V195.5H365.2z"/>
	</g>
	<g id="Layer_3">
		<linearGradient id="SVGID_1_" gradientUnits="userSpaceOnUse" x1="250" y1="195.6901" x2="250" y2="344.3136">
			<stop  offset="0" style="stop-color:#000000;stop-opacity:0.2"/>
			<stop  offset="1" style="stop-color:#B4CAEC;stop-opacity:0"/>
		</linearGradient>
		<rect x="30" y="195.7" class="st5" width="440" height="148.6"/>
		<linearGradient id="SVGID_2_" gradientUnits="userSpaceOnUse" x1="250" y1="195.6901" x2="250" y2="30">
			<stop  offset="0" style="stop-color:#AFC7EB"/>
			<stop  offset="0.2447" style="stop-color:#B6CCED"/>
			<stop  offset="0.2562" style="stop-color:#EBEFF8"/>
			<stop  offset="1" style="stop-color:#B4CAEC"/>
		</linearGradient>
		<path class="st6" d="M470,195.7V74c0-24.3-19.7-44-44-44H74c-24.3,0-44,19.7-44,44v121.7H470z"/>
		<linearGradient id="SVGID_3_" gradientUnits="userSpaceOnUse" x1="105.0211" y1="-19.2461" x2="394.9787" y2="270.7114">
			<stop  offset="0.5985" style="stop-color:#EBEFF8;stop-opacity:0.5"/>
			<stop  offset="0.6" style="stop-color:#B4CAEC;stop-opacity:0.5"/>
			<stop  offset="1" style="stop-color:#B6CCED;stop-opacity:0.11"/>
		</linearGradient>
		<path class="st7" d="M470,195.7V74c0-24.3-19.7-44-44-44H74c-24.3,0-44,19.7-44,44v121.7H470z"/>
	</g>
</svg>
