<svg xmlns="http://www.w3.org/2000/svg" width="0" height="0">

	<svg id="icon-play" viewBox="0 0 13 13">
		<path  fill="#333" d="M11.8,6.7l-9.4,5.2C2.2,12.1,2,12,2,11.7V1.3C2,1,2.2,0.9,2.4,1.1l9.4,5.2C12,6.4,12,6.6,11.8,6.7z"/>
	</svg>

	<svg id="icon-pause" viewBox="0 0 13 13">
		<path  fill="#333" d="M5,10.7C5,10.9,4.9,11,4.7,11l-2.3,0c-0.2,0-0.3-0.1-0.3-0.3V2.3C2,2.1,2.2,2,2.3,2l2.3,0C4.9,2,5,2.1,5,2.3
			V10.7z"/>
		<path  fill="#333" d="M11,10.7c0,0.2-0.1,0.3-0.3,0.3l-2.3,0c-0.2,0-0.3-0.1-0.3-0.3V2.3C8,2.1,8.2,2,8.3,2l2.3,0
			C10.8,2,11,2.1,11,2.3V10.7z"/>
	</svg>

	<svg id="icon-previous" viewBox="0 0 13 13">
		<path  fill="#333" d="M3.2,6.3l7.6-4.3C10.9,2,11,2.1,11,2.3v8.5c0,0.2-0.1,0.3-0.3,0.2L3.2,6.7C3,6.6,3,6.4,3.2,6.3z"/>
		<path  fill="#333" d="M1,9.6c0,0.3,0.2,0.5,0.5,0.5h1.1C2.8,10.1,3,9.9,3,9.6V3.4c0-0.3-0.2-0.5-0.5-0.5H1.5C1.3,2.9,1,3.1,1,3.4
			C1,3.4,1,9.6,1,9.6z"/>
	</svg>

	<svg id="icon-next" viewBox="0 0 13 13">
		<path  fill="#333" d="M9.9,6.7l-7.5,4.3c-0.2,0.1-0.3,0-0.3-0.2V2.3c0-0.2,0.1-0.3,0.3-0.2l7.5,4.3C10.1,6.4,10.1,6.6,9.9,6.7z"/>
		<path  fill="#333" d="M12,9.6c0,0.3-0.2,0.5-0.5,0.5h-1.1c-0.3,0-0.5-0.2-0.5-0.5V3.4c0-0.3,0.2-0.5,0.5-0.5h1.1
			c0.3,0,0.5,0.2,0.5,0.5L12,9.6L12,9.6z"/>
	</svg>

	<svg id="icon-random" viewBox="0 0 13 13">
		<path  fill="#333" d="M9.3,4.7h0.5v1.6L12,4.1L9.8,1.9v1.3H9.3c-2,0-3.2,1.5-4.2,2.8C4.2,7.2,3.4,8.2,2.2,8.2H1v1.5h1.1
			c2,0,3.2-1.5,4.2-2.8C7.2,5.7,8,4.7,9.3,4.7L9.3,4.7z M4,5.7c0.1-0.1,0.2-0.2,0.3-0.3C4.5,5,4.7,4.7,4.9,4.4
			C4.2,3.8,3.3,3.3,2.2,3.3H1v1.5h1.1C2.9,4.8,3.5,5.1,4,5.7z M9.8,8.3H9.3c-0.8,0-1.4-0.4-1.9-0.9C7.3,7.4,7.3,7.5,7.2,7.6
			C7,7.9,6.7,8.2,6.4,8.6c0.7,0.7,1.6,1.3,2.9,1.3h0.5v1.3L12,8.9L9.8,6.7V8.3L9.8,8.3z"/>
	</svg>

	<svg id="icon-repeat" viewBox="0 0 13 13">
		<path  fill="#333" d="M10.3,3.4L8,1L7.2,1.8l1.1,1.1l-3.4,0c-1,0-1.9,0.4-2.5,1C1.6,4.6,1.3,5.5,1.3,6.5l1.1,0C2.4,5.2,3.5,4,4.9,4
			h3.3L7.2,4.9L8,5.7L10.3,3.4z M5,7.3L2.7,9.6L5,12l0.8-0.8l-1.1-1.1l3.4,0c1,0,1.9-0.4,2.5-1c0.7-0.7,1.1-1.6,1.1-2.5l-1.1,0
			C10.6,7.8,9.5,9,8.1,9H4.9l0.9-0.9L5,7.3z"/>
	</svg>

	<svg id="icon-equalizer" viewBox="0 0 13 13">
		<path  fill="#333" d="M7.2,1.7C7.2,1.4,6.9,1,6.5,1C6.1,1,5.8,1.4,5.8,1.7v6.1H5.1v1.4h0.7v2c0,0.4,0.3,0.7,0.7,0.7
			c0.4,0,0.7-0.3,0.7-0.7v-2h0.7V7.9H7.2V1.7z M3.1,1.7C3.1,1.4,2.8,1,2.4,1S1.7,1.4,1.7,1.7v3.4H1v1.4h0.7v4.8C1.7,11.6,2,12,2.4,12
			s0.7-0.3,0.7-0.7V6.5h0.7V5.1H3.1V1.7z M12,3.8h-0.7v-2C11.3,1.4,11,1,10.6,1S9.9,1.4,9.9,1.7v2H9.2v1.4h0.7v6.1
			c0,0.4,0.3,0.7,0.7,0.7s0.7-0.3,0.7-0.7V5.1H12V3.8z"/>
	</svg>

	<svg id="icon-gear" viewBox="0 0 13 13">
		<path fill="#333" d="M10.6,7c0-0.2,0-0.3,0-0.5c0-0.2,0-0.4,0-0.5l1.2-0.9c0.1-0.1,0.1-0.2,0.1-0.3l-1.1-1.9c-0.1-0.1-0.2-0.2-0.3-0.1L9,3.2
			C8.7,3,8.4,2.8,8.1,2.7L7.9,1.2C7.8,1.1,7.7,1,7.6,1H5.4C5.3,1,5.2,1.1,5.1,1.2L4.9,2.7C4.6,2.8,4.3,3,4,3.2L2.6,2.7
			c-0.1,0-0.3,0-0.3,0.1L1.2,4.7C1.1,4.8,1.2,5,1.3,5.1L2.4,6c0,0.2-0.1,0.4-0.1,0.5s0,0.4,0,0.5L1.3,7.9C1.2,8,1.1,8.2,1.2,8.3
			l1.1,1.9c0.1,0.1,0.2,0.2,0.3,0.1L4,9.8c0.3,0.2,0.6,0.4,0.9,0.5l0.2,1.5c0,0.1,0.1,0.2,0.3,0.2h2.2c0.1,0,0.3-0.1,0.3-0.2l0.2-1.5
			C8.4,10.2,8.7,10,9,9.8l1.4,0.5c0.1,0,0.3,0,0.3-0.1l1.1-1.9c0.1-0.1,0-0.3-0.1-0.3L10.6,7z M6.5,8.9c-1.3,0-2.4-1.1-2.4-2.4
			s1.1-2.4,2.4-2.4s2.4,1.1,2.4,2.4S7.8,8.9,6.5,8.9z"/>
	</svg>

</svg>
