<svg xmlns="http://www.w3.org/2000/svg" width="0" height="0">
	<svg id="icon-play" viewBox="0 0 500 500">
		<path fill="#fff" d="M481.811,263.495L56.673,499.753c-9.924,5.443-17.928,0.642-17.928-10.562V17.952c0-11.205,8.004-16.007,17.928-10.564 L481.81,243.647C491.734,249.089,491.734,258.053,481.811,263.495z"/>
	</svg>

	<svg id="icon-pause" viewBox="0 0 500 500">
		<path fill="#fff" d="M137.5,482c0,8.285-6.716,15-15,15h-102c-8.284,0-15-6.715-15-15V34c0-8.283,6.716-15,15-15h102c8.284,0,15,6.717,15,15V482 z"/>
		<path fill="#fff" d="M414.5,482c0,8.285-6.716,15-15,15h-102c-8.284,0-15-6.715-15-15V34c0-8.283,6.716-15,15-15h102c8.284,0,15,6.717,15,15V482 z"/>
	</svg>

	<svg id="icon-previous" viewBox="0 0 500 500">
		<path fill="#fff" d="M112.549,241.619L471.603,42.085c8.383-4.598,15.142-0.541,15.142,8.922v397.987c0,9.463-6.759,13.519-15.142,8.923 L112.549,258.382C104.168,253.786,104.168,246.216,112.549,241.619z"/>
		<path fill="#fff" d="M13.255,396.001c0,11.945,9.684,21.63,21.63,21.63h49.748c11.946,0,21.63-9.685,21.63-21.63V103.999 c0-11.947-9.684-21.629-21.63-21.629H34.885c-11.946,0-21.63,9.682-21.63,21.629V396.001z"/>
	</svg>

	<svg id="icon-next" viewBox="0 0 500 500">
		<path fill="#fff" d="M387.45,258.382L28.396,457.917c-8.383,4.596-15.142,0.54-15.142-8.923V51.007c0-9.463,6.759-13.52,15.142-8.922 L387.45,241.619C395.831,246.216,395.831,253.786,387.45,258.382z"/>
		<path fill="#fff" d="M486.744,396.001c0,11.945-9.684,21.63-21.63,21.63h-49.748c-11.946,0-21.63-9.685-21.63-21.63V103.999 c0-11.947,9.684-21.629,21.63-21.629h49.748c11.946,0,21.63,9.682,21.63,21.629V396.001z"/>
	</svg>

	<svg id="icon-gear" viewBox="0 0 1024 1024">
		<path fill="#333" d="M682.56,511.998c0-93.941-76.619-170.559-170.559-170.559c-93.94,0-170.559,76.618-170.559,170.559 c0,93.939,76.618,170.559,170.559,170.559C605.94,682.557,682.56,605.938,682.56,511.998L682.56,511.998z M1023.677,439.376v147.906 c0,9.994-7.994,21.986-18.654,23.984l-123.256,18.656c-7.327,21.319-15.323,41.306-25.982,60.629 c22.652,32.645,46.637,61.961,71.289,91.942c3.997,4.662,6.662,10.658,6.662,16.655c0,5.996-1.999,10.66-5.996,15.325 c-15.99,21.319-105.934,119.257-128.585,119.257c-5.996,0-11.992-2.666-17.323-5.996l-91.942-71.954 c-19.321,9.993-39.976,18.655-60.63,25.316c-4.662,40.642-8.66,83.946-19.32,123.922c-2.666,10.66-11.992,18.655-23.984,18.655 H438.048c-11.992,0-22.652-8.662-23.984-19.987l-18.654-122.59c-20.654-6.661-40.641-14.656-59.962-24.649l-93.941,71.288 c-4.664,3.997-10.66,5.996-16.657,5.996c-5.996,0-11.992-2.666-16.656-7.328c-35.311-31.979-81.947-73.288-109.93-111.929 c-3.331-4.665-4.664-9.994-4.664-15.326c0-5.996,1.999-10.658,5.329-15.323c22.652-30.647,47.304-59.962,69.956-91.275 c-11.327-21.321-20.654-43.307-27.316-65.958L19.644,608.604c-11.326-1.998-19.32-12.659-19.32-23.984V436.713 c0-9.993,7.994-21.985,17.988-23.984l123.922-18.654c6.662-21.32,15.323-41.308,25.982-61.294 c-22.652-31.981-46.637-61.962-71.289-91.942c-3.997-4.664-6.662-9.994-6.662-15.99s2.665-10.66,5.996-15.323 C112.25,187.539,202.194,90.267,224.846,90.267c5.996,0,11.992,2.665,17.323,6.662l91.942,71.289 c19.321-9.993,39.975-18.654,60.628-25.317c4.664-40.641,8.662-83.947,19.322-123.922c2.665-10.66,11.992-18.654,23.984-18.654 h147.906c11.992,0,22.652,8.66,23.984,19.986l18.655,122.59c20.652,6.663,40.64,14.658,59.962,24.651l94.605-71.289 c3.998-3.997,9.994-5.996,15.99-5.996s11.992,2.665,16.656,6.662c35.311,32.646,81.948,73.953,109.931,113.262 c3.33,3.997,4.665,9.327,4.665,14.657c0,5.996-1.999,10.66-5.331,15.324c-22.651,30.646-47.303,59.963-69.956,91.276 c11.328,21.319,20.654,43.306,27.318,65.291l121.922,18.655c11.326,1.999,19.321,12.658,19.321,23.984L1023.677,439.376z"/>
	</svg>

	<svg id="icon-random" viewBox="0 0 500 500">
		<path fill="#fff" d="M368.157,173.301h21.345v66.398L482,146.342l-92.521-93.379v55.378h-21.344c-85.701,0-134.004,63.521-176.645,119.526 c-38.327,50.391-71.457,93.937-124.956,93.937H18v64.938h48.558c85.7,0,134.003-63.476,176.646-119.526 C281.529,216.801,314.658,173.301,368.157,173.301L368.157,173.301z M143.512,214.226c3.666-4.71,7.332-9.558,11.066-14.454 c9.049-11.924,18.652-24.476,29.047-37.027c-30.67-28.628-67.629-49.74-117.067-49.74H18v64.937h48.558 C97.344,177.94,121.355,192.395,143.512,214.226z M389.479,326.421h-21.344c-32.643,0-57.698-16.263-80.991-40.321 c-2.32,3.039-4.664,6.124-7.03,9.21c-10.231,13.456-21.228,27.863-33.385,42.178c31.459,30.717,69.601,53.917,121.383,53.917h21.344 v55.634L482,353.657l-92.521-93.38V326.421L389.479,326.421z"/>
	</svg>

	<svg id="icon-repeat" viewBox="0 0 500 500">
		<path fill="#fff" d="M413.145,116.855l-99.858-99.857L280,50.283l46.642,46.643L180.07,96.967c-40.783-0.041-79.129,15.803-108.013,44.688 c-28.867,28.867-44.786,67.271-44.761,108.087l47.049-0.049c-0.033-56.488,49.23-105.751,105.691-105.691h139.39L280,183.428 l33.286,33.287L413.145,116.855z M186.714,283.287l-99.858,99.857l99.858,99.857L220,449.717l-46.643-46.643l146.563-0.033 c40.783,0.041,79.129-15.803,108.013-44.686c28.876-28.875,44.787-67.289,44.771-108.097l-47.05,0.051 c0.033,56.486-49.23,105.75-105.691,105.691H180.572L220,316.572L186.714,283.287z"/>
	</svg>

	<svg id="icon-equalizer" viewBox="0 0 500 500">
		<path fill="#fff" d="M279.875,40.875C279.875,24.443,266.431,11,250,11c-16.432,0-29.875,13.443-29.875,29.875V309.75H190.25v59.75h29.875 v89.625C220.125,475.556,233.568,489,250,489c16.431,0,29.875-13.444,29.875-29.875V369.5h29.875v-59.75h-29.875V40.875z  M100.625,40.875C100.625,24.443,87.182,11,70.75,11S40.875,24.443,40.875,40.875V190.25H11V250h29.875v209.125 C40.875,475.556,54.318,489,70.75,489s29.875-13.444,29.875-29.875V250H130.5v-59.75h-29.875V40.875z M489,130.5h-29.875V40.875 C459.125,24.443,445.681,11,429.25,11s-29.875,13.443-29.875,29.875V130.5H369.5v59.75h29.875v268.875 c0,16.431,13.444,29.875,29.875,29.875s29.875-13.444,29.875-29.875V190.25H489V130.5z"/>
	</svg>
</svg>